<?xml version="1.0" encoding="utf-8"?>
<!-- Generator: Adobe Illustrator 22.0.1, SVG Export Plug-In . SVG Version: 6.00 Build 0)  -->
<svg version="1.1" id="圖層_1" xmlns="http://www.w3.org/2000/svg" xmlns:xlink="http://www.w3.org/1999/xlink" x="0px" y="0px"
	 viewBox="0 0 16 17" style="enable-background:new 0 0 16 17;" xml:space="preserve">
<style type="text/css">
	.st0{fill:#FFFFFF;}
	.st1{fill:none;}
</style>
<g id="Desktop">
	<g id="Bag_Drop_Down_1_">
		<g id="Account_1_">
			<path class="st0" d="M9,1v1.3v0.7l0.7,0.2c0.2,0.1,0.3,0.1,0.5,0.2l0.6,0.3l0.5-0.5l0.9-1l1.4,1.4l-0.9,1l-0.5,0.5l0.3,0.6
				c0.1,0.2,0.1,0.3,0.2,0.5L12.9,7h0.7H15v2h-1.4h-0.7l-0.2,0.7c-0.1,0.2-0.1,0.3-0.2,0.5l-0.3,0.6l0.5,0.5l0.9,0.9l-1.4,1.4
				l-0.9-0.9l-0.5-0.5l-0.6,0.3c-0.2,0.1-0.3,0.1-0.5,0.2L9,12.9v0.7V15H7v-1.4v-0.7l-0.7-0.2c-0.2-0.1-0.3-0.1-0.5-0.2l-0.6-0.3
				l-0.5,0.5l-1,0.9l-1.4-1.4l1-0.9l0.5-0.5l-0.3-0.6C3.4,10,3.4,9.8,3.3,9.7L3.1,9H2.3H1V7h1.3h0.7l0.2-0.7C3.4,6.2,3.4,6,3.5,5.8
				l0.3-0.6L3.3,4.7l-1-1l1.4-1.4l1,1l0.5,0.5l0.6-0.3C6,3.4,6.2,3.4,6.3,3.3L7,3.1V2.3V1H9 M8,11.5c1.9,0,3.5-1.6,3.5-3.5
				S9.9,4.5,8,4.5S4.5,6.1,4.5,8S6.1,11.5,8,11.5 M9,0H7C6.4,0,6,0.4,6,1v1.3C5.8,2.4,5.6,2.5,5.4,2.6l-1-0.9C4.3,1.4,4,1.3,3.8,1.3
				C3.5,1.3,3.3,1.4,3,1.6L1.6,3c-0.4,0.4-0.4,1,0,1.4l0.9,0.9C2.5,5.6,2.4,5.8,2.3,6H1C0.4,6,0,6.4,0,7v2c0,0.6,0.4,1,1,1h1.3
				c0.1,0.2,0.2,0.4,0.2,0.6l-1,0.9c-0.4,0.4-0.4,1,0,1.4L3,14.3c0.2,0.2,0.5,0.3,0.7,0.3s0.5-0.1,0.7-0.3l0.9-0.9
				c0.2,0.1,0.4,0.2,0.6,0.3V15c0,0.6,0.4,1,1,1h2c0.6,0,1-0.4,1-1v-1.4c0.2-0.1,0.4-0.1,0.6-0.2l0.9,0.9c0.2,0.2,0.4,0.3,0.7,0.3
				s0.5-0.1,0.7-0.3l1.4-1.4c0.4-0.4,0.4-1,0-1.4l-0.9-0.9c0.1-0.2,0.2-0.4,0.2-0.6H15c0.6,0,1-0.4,1-1V7c0-0.6-0.4-1-1-1h-1.4
				c-0.1-0.2-0.1-0.4-0.2-0.6l0.9-0.9c0.4-0.4,0.4-1,0-1.4l-1.4-1.4c-0.2-0.2-0.4-0.3-0.7-0.3s-0.5,0.1-0.7,0.3l-0.9,0.9
				c-0.2-0.1-0.4-0.2-0.6-0.3V1C10,0.4,9.6,0,9,0L9,0z M8,10.5c-1.4,0-2.5-1.1-2.5-2.5S6.6,5.5,8,5.5s2.5,1.1,2.5,2.5
				S9.4,10.5,8,10.5L8,10.5z"/>
			<rect class="st1" width="16" height="17"/>
		</g>
	</g>
	<g id="Top_Nav">
	</g>
	<g id="Search_Results_Drop_Down">
	</g>
</g>
<g id="Mobile">
	<g id="Top_Nav_1_">
	</g>
	<g id="Search_1_">
	</g>
</g>
</svg>
