<?xml version="1.0" encoding="utf-8"?>
<!-- Generator: Adobe Illustrator 22.0.1, SVG Export Plug-In . SVG Version: 6.00 Build 0)  -->
<svg version="1.1" id="GLYPHS" xmlns="http://www.w3.org/2000/svg" xmlns:xlink="http://www.w3.org/1999/xlink" x="0px" y="0px"
	 viewBox="0 0 16.1 18.9" style="enable-background:new 0 0 16.1 18.9;" xml:space="preserve">
<style type="text/css">
	.st0{fill:#FFFFFF;}
</style>
<g id="Mac">
	<g id="Apple_2_">
		<path class="st0" d="M16.2,13.8c-0.1,0.3-0.2,0.6-0.3,0.9c-0.3,0.7-0.6,1.3-1,1.8c-0.5,0.8-1,1.3-1.3,1.6
			c-0.5,0.5-1.1,0.7-1.7,0.7c-0.4,0-0.9-0.1-1.6-0.4S9.1,18,8.6,18s-1.1,0.1-1.7,0.4s-1.1,0.4-1.5,0.4c-0.6,0-1.2-0.2-1.7-0.8
			c-0.4-0.3-0.8-0.9-1.4-1.6c-0.6-0.8-1.1-1.8-1.5-2.9c-0.4-1.2-0.6-2.3-0.6-3.5c0-1.3,0.3-2.4,0.8-3.3C1.4,6,2,5.4,2.7,4.9
			S4.2,4.3,5,4.2c0.5,0,1.1,0.1,1.8,0.4S8,5,8.2,5c0.2,0,0.7-0.2,1.6-0.5c0.9-0.3,1.6-0.4,2.2-0.4c1.6,0.1,2.8,0.8,3.6,1.9
			c-1.4,0.9-2.1,2.1-2.1,3.6c0,1.2,0.4,2.2,1.3,3C15.3,13.3,15.7,13.6,16.2,13.8z M12.2-0.1c0,0.1,0,0.3,0,0.4c0,0.9-0.4,1.8-1,2.7
			c-0.8,1-1.9,1.5-2.9,1.4c0-0.1,0-0.2,0-0.4c0-0.9,0.4-1.9,1.1-2.7c0.4-0.4,0.8-0.7,1.3-1C11.2,0.1,11.7-0.1,12.2-0.1z"/>
	</g>
</g>
</svg>
