<?xml version="1.0" encoding="utf-8"?>
<!-- Generator: Adobe Illustrator 22.0.1, SVG Export Plug-In . SVG Version: 6.00 Build 0)  -->
<svg version="1.1" id="圖層_1" xmlns="http://www.w3.org/2000/svg" xmlns:xlink="http://www.w3.org/1999/xlink" x="0px" y="0px"
	 viewBox="0 0 17 18" style="enable-background:new 0 0 17 18;" xml:space="preserve">
<style type="text/css">
	.st0{fill:none;}
	.st1{fill:#FFFFFF;}
</style>
<g id="Desktop">
	<g id="Bag_Drop_Down_1_">
		<g id="Sign_Out">
			<rect class="st0" width="17" height="18"/>
			<path class="st1" d="M8.5,0.5c-4.4,0-8,3.6-8,8s3.6,8,8,8s8-3.6,8-8S12.9,0.5,8.5,0.5z M12.5,14.2c-0.1,0-0.1,0-0.1-0.1
				c-0.4-0.2-0.9-0.3-1.3-0.4c-0.6-0.1-0.8-0.4-0.9-1.1c0-0.1-0.1-0.9,0-0.9c0.4-0.2,0.5-0.9,0.5-1.3c0-0.3,0.2-0.4,0.3-0.7
				c0.1-0.3,0.3-0.6,0.4-0.9c0.1-0.2,0.2-0.6,0.1-0.8c0-0.2-0.2-0.4-0.2-0.6c0-0.3,0-0.5,0.1-0.8c0.1-0.4,0-0.9-0.1-1.3
				c0-0.2-0.1-0.5-0.3-0.6c-0.2-0.3-0.4-0.5-0.6-0.6C9.9,3.8,9.2,3.6,8.5,3.6c-0.7,0-1.4,0.2-1.9,0.5C6.3,4.3,6.1,4.5,5.9,4.8
				C5.8,4.9,5.7,5.2,5.7,5.4C5.6,5.8,5.6,6.3,5.6,6.7c0,0.3,0.1,0.5,0.1,0.8c0,0.2-0.2,0.4-0.2,0.6c0,0.2,0.1,0.6,0.1,0.8
				C5.7,9.2,5.8,9.6,6,9.8c0.1,0.2,0.3,0.4,0.3,0.7c0,0.4,0.1,1.1,0.5,1.3c0.1,0.1,0,0.8,0,0.9c0,0.6-0.3,0.9-0.9,1.1
				C5.5,13.8,5,14,4.6,14.1c0,0-0.1,0-0.1,0.1c-1.8-1.2-3-3.3-3-5.7c0-3.8,3.1-7,7-7s7,3.1,7,7C15.5,10.8,14.3,12.9,12.5,14.2z"/>
		</g>
	</g>
	<g id="Top_Nav">
	</g>
	<g id="Search_Results_Drop_Down">
	</g>
</g>
<g id="Mobile">
	<g id="Top_Nav_1_">
	</g>
	<g id="Search_1_">
	</g>
</g>
</svg>
